<svg width="1920" height="275" viewBox="0 0 1920 275" fill="none" xmlns="http://www.w3.org/2000/svg">
<g opacity="0.75" clip-path="url(#clip0_10_908)">
<rect width="1920" height="275" fill="white"/>
<rect width="1920" height="275" fill="url(#paint0_linear_10_908)"/>
<path d="M548.139 139L564.779 59.64H577.963L594.347 139H582.955L579.371 121.08L581.291 122.872H560.939L562.603 121.08L559.275 139H548.139ZM562.987 115.32L561.963 114.04H580.651L579.115 115.32L572.203 74.232L571.947 72.44H570.539L570.283 74.232L562.987 115.32ZM607.367 59H618.119V139H607.367V59ZM653.407 139.512C648.116 139.512 644.105 138.829 641.375 137.464C638.644 136.099 636.809 134.307 635.871 132.088C634.932 129.869 634.463 127.523 634.463 125.048V92.664C634.463 90.104 634.932 87.7573 635.871 85.624C636.895 83.4053 638.772 81.6133 641.503 80.248C644.319 78.8827 648.457 78.2 653.919 78.2C658.953 78.2 662.879 78.8827 665.695 80.248C668.511 81.528 670.473 83.2347 671.583 85.368C672.777 87.5013 673.375 89.8907 673.375 92.536V105.592L662.623 106.232V94.456C662.623 92.0667 661.897 90.1467 660.447 88.696C658.996 87.16 656.82 86.392 653.919 86.392C651.103 86.392 648.927 87.16 647.391 88.696C645.94 90.1467 645.215 92.0667 645.215 94.456V123C645.215 125.389 645.94 127.309 647.391 128.76C648.841 130.125 650.804 130.808 653.279 130.808C656.521 130.808 658.868 130.083 660.319 128.632C661.855 127.181 662.623 125.091 662.623 122.36V117.368L673.375 116.472V124.152C673.375 126.968 672.777 129.571 671.583 131.96C670.473 134.264 668.468 136.099 665.567 137.464C662.665 138.829 658.612 139.512 653.407 139.512ZM635.871 110.584V104.824H673.375V110.584H635.871ZM689.732 139V59H700.484V139H689.732ZM719.172 139L702.788 112.376H696.004V104.184H702.788L718.02 77.304L727.876 81.016L712.388 107.256L731.46 139H719.172ZM757.849 139.768C751.619 139.768 747.139 138.531 744.409 136.056C741.763 133.496 740.441 129.955 740.441 125.432V117.112L750.041 115.832V124.92C750.041 126.2 750.254 127.437 750.681 128.632C751.107 129.741 751.875 130.68 752.985 131.448C754.179 132.131 755.886 132.472 758.105 132.472C760.665 132.472 762.67 131.96 764.121 130.936C765.657 129.912 766.425 127.907 766.425 124.92C766.425 121.592 766.041 119.16 765.273 117.624C764.59 116.003 763.011 114.595 760.537 113.4C759.854 113.059 759.001 112.675 757.977 112.248C756.953 111.736 755.843 111.224 754.649 110.712C753.539 110.2 752.473 109.731 751.449 109.304C750.425 108.792 749.614 108.365 749.017 108.024C746.627 106.659 744.793 105.336 743.513 104.056C742.318 102.776 741.507 101.411 741.081 99.96C740.654 98.424 740.441 96.6747 740.441 94.712V92.536C740.441 87.5867 741.891 83.96 744.793 81.656C747.694 79.352 752.345 78.2 758.745 78.2C765.059 78.2 769.539 79.2667 772.185 81.4C774.915 83.5333 776.281 86.9893 776.281 91.768V99.704L766.425 100.984V92.664C766.425 89.9333 765.742 88.056 764.377 87.032C763.011 86.008 761.006 85.496 758.361 85.496C755.886 85.496 754.051 85.88 752.857 86.648C751.747 87.416 751.022 88.3973 750.681 89.592C750.339 90.7013 750.169 91.8107 750.169 92.92C750.169 95.736 750.425 97.7413 750.937 98.936C751.534 100.045 752.686 101.112 754.393 102.136C755.246 102.563 756.313 103.117 757.593 103.8C758.958 104.397 760.451 105.08 762.073 105.848C763.694 106.531 765.358 107.341 767.065 108.28C770.478 109.901 772.867 111.779 774.233 113.912C775.598 115.96 776.281 118.947 776.281 122.872V124.536C776.281 129.656 774.958 133.496 772.313 136.056C769.753 138.531 764.931 139.768 757.849 139.768ZM801.697 139C798.454 139 796.107 138.531 794.657 137.592C793.291 136.568 792.438 134.861 792.097 132.472C791.755 130.083 791.585 126.755 791.585 122.488V92.28C791.585 88.952 791.969 86.3067 792.737 84.344C793.505 82.3813 794.913 80.9733 796.961 80.12C799.094 79.2667 802.081 78.84 805.921 78.84H830.497V139H819.745V87.544H807.969C806.091 87.544 804.769 87.8 804.001 88.312C803.233 88.7387 802.763 89.5067 802.593 90.616C802.422 91.7253 802.337 93.2613 802.337 95.224V122.488C802.337 124.792 802.465 126.499 802.721 127.608C802.977 128.717 803.446 129.443 804.129 129.784C804.897 130.125 806.006 130.296 807.457 130.296H816.545L815.521 139H801.697ZM847.967 78.712H856.671L857.695 84.984C858.975 82.7653 860.809 81.016 863.199 79.736C865.673 78.456 868.66 77.816 872.159 77.816C876.937 77.816 880.564 78.9253 883.039 81.144C885.599 83.2773 886.879 86.5627 886.879 91V139H876.127V94.584C876.127 91.768 875.359 89.7627 873.823 88.568C872.287 87.288 870.153 86.648 867.423 86.648C865.033 86.648 863.156 87.16 861.791 88.184C860.425 89.208 859.401 90.5733 858.719 92.28V139H847.967V78.712ZM914.083 139C911.096 139 908.792 138.701 907.171 138.104C905.549 137.421 904.44 136.056 903.843 134.008C903.331 131.96 903.075 128.845 903.075 124.664V91.512C903.075 88.3547 903.501 85.8373 904.355 83.96C905.208 82.0827 906.659 80.76 908.707 79.992C910.755 79.224 913.528 78.84 917.027 78.84H931.235V58.488H941.987V139H914.083ZM931.235 130.296V87.544H919.587C917.283 87.544 915.747 87.928 914.979 88.696C914.211 89.464 913.827 91 913.827 93.304V123.896C913.827 126.797 914.211 128.589 914.979 129.272C915.747 129.955 917.155 130.296 919.203 130.296H931.235ZM959.457 139V78.84H968.161L969.185 85.112C970.55 82.808 972.342 81.0587 974.561 79.864C976.779 78.6693 979.083 78.072 981.473 78.072C983.606 78.072 985.227 78.2 986.337 78.456C987.531 78.6267 988.555 78.9253 989.409 79.352L988.897 88.696C987.873 88.3547 986.678 88.056 985.312 87.8C984.033 87.544 982.454 87.416 980.577 87.416C978.102 87.416 975.926 88.0987 974.049 89.464C972.171 90.8293 970.891 92.8347 970.208 95.48V139H959.457ZM1027.06 139V59.64H1041.01L1056.76 113.656L1056.89 114.296H1057.01L1057.14 113.656L1072.89 59.64H1086.84V139H1075.83V82.936L1075.7 82.808L1075.57 84.984L1061.37 129.528H1052.53L1038.33 85.368V83.32L1038.07 83.192V139H1027.06ZM1103.81 139V78.84H1114.57V139H1103.81ZM1109.19 72.056C1106.71 72.056 1105.09 71.7147 1104.33 71.032C1103.64 70.264 1103.3 68.9413 1103.3 67.064C1103.3 65.016 1103.64 63.6507 1104.33 62.968C1105.09 62.2 1106.71 61.816 1109.19 61.816C1111.75 61.816 1113.37 62.2 1114.05 62.968C1114.74 63.6507 1115.08 65.016 1115.08 67.064C1115.08 68.9413 1114.74 70.264 1114.05 71.032C1113.37 71.7147 1111.75 72.056 1109.19 72.056ZM1131.94 139V78.84H1140.64L1141.66 85.112C1143.03 82.808 1144.82 81.0587 1147.04 79.864C1149.26 78.6693 1151.56 78.072 1153.95 78.072C1156.09 78.072 1157.71 78.2 1158.82 78.456C1160.01 78.6267 1161.04 78.9253 1161.89 79.352L1161.38 88.696C1160.35 88.3547 1159.16 88.056 1157.79 87.8C1156.51 87.544 1154.93 87.416 1153.06 87.416C1150.58 87.416 1148.41 88.0987 1146.53 89.464C1144.65 90.8293 1143.37 92.8347 1142.69 95.48V139H1131.94ZM1192.23 139.512C1186.94 139.512 1182.93 138.829 1180.19 137.464C1177.46 136.099 1175.63 134.307 1174.69 132.088C1173.75 129.869 1173.28 127.523 1173.28 125.048V92.664C1173.28 90.104 1173.75 87.7573 1174.69 85.624C1175.71 83.4053 1177.59 81.6133 1180.32 80.248C1183.14 78.8827 1187.28 78.2 1192.74 78.2C1197.77 78.2 1201.7 78.8827 1204.51 80.248C1207.33 81.528 1209.29 83.2347 1210.4 85.368C1211.6 87.5013 1212.19 89.8907 1212.19 92.536V124.152C1212.19 126.968 1211.6 129.571 1210.4 131.96C1209.29 134.264 1207.29 136.099 1204.39 137.464C1201.49 138.829 1197.43 139.512 1192.23 139.512ZM1192.1 130.808C1195.34 130.808 1197.69 130.083 1199.14 128.632C1200.67 127.181 1201.44 125.091 1201.44 122.36V94.456C1201.44 92.0667 1200.72 90.1467 1199.27 88.696C1197.82 87.16 1195.64 86.392 1192.74 86.392C1189.92 86.392 1187.75 87.16 1186.21 88.696C1184.76 90.1467 1184.03 92.0667 1184.03 94.456V123C1184.03 125.389 1184.76 127.309 1186.21 128.76C1187.66 130.125 1189.62 130.808 1192.1 130.808ZM1228.55 78.712H1237.26L1238.28 84.984C1239.56 82.7653 1241.39 81.016 1243.78 79.736C1246.26 78.456 1249.24 77.816 1252.74 77.816C1257.52 77.816 1261.15 78.9253 1263.62 81.144C1266.18 83.2773 1267.46 86.5627 1267.46 91V139H1256.71V94.584C1256.71 91.768 1255.94 89.7627 1254.41 88.568C1252.87 87.288 1250.74 86.648 1248.01 86.648C1245.62 86.648 1243.74 87.16 1242.38 88.184C1241.01 89.208 1239.99 90.5733 1239.3 92.28V139H1228.55V78.712ZM1302.09 139.512C1296.8 139.512 1292.79 138.829 1290.06 137.464C1287.33 136.099 1285.49 134.307 1284.56 132.088C1283.62 129.869 1283.15 127.523 1283.15 125.048V92.664C1283.15 90.104 1283.62 87.7573 1284.56 85.624C1285.58 83.4053 1287.46 81.6133 1290.19 80.248C1293 78.8827 1297.14 78.2 1302.6 78.2C1307.64 78.2 1311.56 78.8827 1314.38 80.248C1317.2 81.528 1319.16 83.2347 1320.27 85.368C1321.46 87.5013 1322.06 89.8907 1322.06 92.536V124.152C1322.06 126.968 1321.46 129.571 1320.27 131.96C1319.16 134.264 1317.15 136.099 1314.25 137.464C1311.35 138.829 1307.3 139.512 1302.09 139.512ZM1301.96 130.808C1305.21 130.808 1307.55 130.083 1309 128.632C1310.54 127.181 1311.31 125.091 1311.31 122.36V94.456C1311.31 92.0667 1310.58 90.1467 1309.13 88.696C1307.68 87.16 1305.5 86.392 1302.6 86.392C1299.79 86.392 1297.61 87.16 1296.08 88.696C1294.62 90.1467 1293.9 92.0667 1293.9 94.456V123C1293.9 125.389 1294.62 127.309 1296.08 128.76C1297.53 130.125 1299.49 130.808 1301.96 130.808ZM1348.56 139L1331.66 78.84H1341.77L1352.65 120.312V118.264L1362.25 78.84H1372.62L1355.6 139H1348.56ZM829.385 234.49C825.791 234.49 823.108 233.813 821.335 232.46C819.561 231.107 818.675 229.193 818.675 226.72V198.44C818.675 195.5 819.515 193.377 821.195 192.07C822.921 190.717 825.628 190.063 829.315 190.11C832.908 190.11 835.591 190.763 837.365 192.07C839.185 193.377 840.095 195.523 840.095 198.51V226.72C840.095 229.193 839.161 231.107 837.295 232.46C835.428 233.813 832.791 234.49 829.385 234.49ZM829.315 229.52C831.088 229.52 832.325 229.17 833.025 228.47C833.725 227.77 834.075 226.813 834.075 225.6V199.77C834.075 198.183 833.748 196.993 833.095 196.2C832.488 195.407 831.228 195.01 829.315 195.01C827.448 195.01 826.211 195.43 825.605 196.27C825.045 197.11 824.765 198.253 824.765 199.7V225.81C824.765 226.977 825.115 227.887 825.815 228.54C826.515 229.193 827.681 229.52 829.315 229.52ZM838.835 243.03L830.365 233.93L834.285 229.94L843.105 238.76L838.835 243.03ZM846.246 234L855.346 190.6H862.556L871.516 234H865.286L863.326 224.2L864.376 225.18H853.246L854.156 224.2L852.336 234H846.246ZM854.366 221.05L853.806 220.35H864.026L863.186 221.05L859.406 198.58L859.266 197.6H858.496L858.356 198.58L854.366 221.05ZM892.438 190.6H913.018V195.36H898.458V207.61H911.688L910.918 212.3H898.458V229.31H913.018V234H892.438V190.6ZM920.946 201.03H925.706L926.266 204.46C926.966 203.247 927.969 202.29 929.276 201.59C930.629 200.89 932.262 200.54 934.176 200.54C936.789 200.54 938.772 201.147 940.126 202.36C941.526 203.527 942.226 205.323 942.226 207.75V234H936.346V209.71C936.346 208.17 935.926 207.073 935.086 206.42C934.246 205.72 933.079 205.37 931.586 205.37C930.279 205.37 929.252 205.65 928.506 206.21C927.759 206.77 927.199 207.517 926.826 208.45V234H920.946V201.03ZM954.653 246.25L953.883 241.56H963.473C964.686 241.56 965.48 241.257 965.853 240.65C966.273 240.09 966.483 239.087 966.483 237.64V205.86H960.043C959.016 205.86 958.293 206 957.873 206.28C957.453 206.513 957.196 206.933 957.103 207.54C957.01 208.147 956.963 208.987 956.963 210.06V224.97C956.963 226.23 957.033 227.163 957.173 227.77C957.313 228.377 957.57 228.773 957.943 228.96C958.363 229.147 958.97 229.24 959.763 229.24H964.733L964.173 234H956.613C954.84 234 953.556 233.743 952.763 233.23C952.016 232.67 951.55 231.737 951.363 230.43C951.176 229.123 951.083 227.303 951.083 224.97V208.45C951.083 206.63 951.293 205.183 951.713 204.11C952.133 203.037 952.903 202.267 954.023 201.8C955.19 201.333 956.823 201.1 958.923 201.1H972.363V239.18C972.363 241.513 971.873 243.263 970.893 244.43C969.96 245.643 968.28 246.25 965.853 246.25H954.653ZM981.847 234V201.1H987.727V234H981.847ZM984.787 197.39C983.433 197.39 982.547 197.203 982.127 196.83C981.753 196.41 981.567 195.687 981.567 194.66C981.567 193.54 981.753 192.793 982.127 192.42C982.547 192 983.433 191.79 984.787 191.79C986.187 191.79 987.073 192 987.447 192.42C987.82 192.793 988.007 193.54 988.007 194.66C988.007 195.687 987.82 196.41 987.447 196.83C987.073 197.203 986.187 197.39 984.787 197.39ZM997.227 201.03H1001.99L1002.55 204.46C1003.25 203.247 1004.25 202.29 1005.56 201.59C1006.91 200.89 1008.54 200.54 1010.46 200.54C1013.07 200.54 1015.05 201.147 1016.41 202.36C1017.81 203.527 1018.51 205.323 1018.51 207.75V234H1012.63V209.71C1012.63 208.17 1012.21 207.073 1011.37 206.42C1010.53 205.72 1009.36 205.37 1007.87 205.37C1006.56 205.37 1005.53 205.65 1004.79 206.21C1004.04 206.77 1003.48 207.517 1003.11 208.45V234H997.227V201.03ZM1037.44 234.28C1034.55 234.28 1032.36 233.907 1030.86 233.16C1029.37 232.413 1028.37 231.433 1027.85 230.22C1027.34 229.007 1027.08 227.723 1027.08 226.37V208.66C1027.08 207.26 1027.34 205.977 1027.85 204.81C1028.41 203.597 1029.44 202.617 1030.93 201.87C1032.47 201.123 1034.74 200.75 1037.72 200.75C1040.48 200.75 1042.62 201.123 1044.16 201.87C1045.7 202.57 1046.78 203.503 1047.38 204.67C1048.04 205.837 1048.36 207.143 1048.36 208.59V215.73L1042.48 216.08V209.64C1042.48 208.333 1042.09 207.283 1041.29 206.49C1040.5 205.65 1039.31 205.23 1037.72 205.23C1036.18 205.23 1034.99 205.65 1034.15 206.49C1033.36 207.283 1032.96 208.333 1032.96 209.64V225.25C1032.96 226.557 1033.36 227.607 1034.15 228.4C1034.95 229.147 1036.02 229.52 1037.37 229.52C1039.15 229.52 1040.43 229.123 1041.22 228.33C1042.06 227.537 1042.48 226.393 1042.48 224.9V222.17L1048.36 221.68V225.88C1048.36 227.42 1048.04 228.843 1047.38 230.15C1046.78 231.41 1045.68 232.413 1044.09 233.16C1042.51 233.907 1040.29 234.28 1037.44 234.28ZM1027.85 218.46V215.31H1048.36V218.46H1027.85ZM1067.11 234.28C1064.22 234.28 1062.02 233.907 1060.53 233.16C1059.04 232.413 1058.03 231.433 1057.52 230.22C1057.01 229.007 1056.75 227.723 1056.75 226.37V208.66C1056.75 207.26 1057.01 205.977 1057.52 204.81C1058.08 203.597 1059.11 202.617 1060.6 201.87C1062.14 201.123 1064.4 200.75 1067.39 200.75C1070.14 200.75 1072.29 201.123 1073.83 201.87C1075.37 202.57 1076.44 203.503 1077.05 204.67C1077.7 205.837 1078.03 207.143 1078.03 208.59V215.73L1072.15 216.08V209.64C1072.15 208.333 1071.75 207.283 1070.96 206.49C1070.17 205.65 1068.98 205.23 1067.39 205.23C1065.85 205.23 1064.66 205.65 1063.82 206.49C1063.03 207.283 1062.63 208.333 1062.63 209.64V225.25C1062.63 226.557 1063.03 227.607 1063.82 228.4C1064.61 229.147 1065.69 229.52 1067.04 229.52C1068.81 229.52 1070.1 229.123 1070.89 228.33C1071.73 227.537 1072.15 226.393 1072.15 224.9V222.17L1078.03 221.68V225.88C1078.03 227.42 1077.7 228.843 1077.05 230.15C1076.44 231.41 1075.35 232.413 1073.76 233.16C1072.17 233.907 1069.96 234.28 1067.11 234.28ZM1057.52 218.46V215.31H1078.03V218.46H1057.52ZM1086.97 234V201.1H1091.73L1092.29 204.53C1093.04 203.27 1094.02 202.313 1095.23 201.66C1096.45 201.007 1097.71 200.68 1099.01 200.68C1100.18 200.68 1101.07 200.75 1101.67 200.89C1102.33 200.983 1102.89 201.147 1103.35 201.38L1103.07 206.49C1102.51 206.303 1101.86 206.14 1101.11 206C1100.41 205.86 1099.55 205.79 1098.52 205.79C1097.17 205.79 1095.98 206.163 1094.95 206.91C1093.93 207.657 1093.23 208.753 1092.85 210.2V234H1086.97Z" fill="black"/>
</g>
<defs>
<linearGradient id="paint0_linear_10_908" x1="-5.22156e-06" y1="50.4416" x2="1920" y2="275" gradientUnits="userSpaceOnUse">
<stop stop-color="#0CEBEB"/>
<stop offset="0.489583" stop-color="#20E3B2"/>
<stop offset="1" stop-color="#29FFC6"/>
</linearGradient>
<clipPath id="clip0_10_908">
<rect width="1920" height="275" fill="white"/>
</clipPath>
</defs>
</svg>
